# xmcd
#
# Track frame offsets:
#	150
#	15625
#	31670
#	56662
#	82097
#
# Disc length: 1314 seconds
#
# Revision: 0
# Processed by: cddbd v1.5.2PL0 Copyright (c) Steve Scherf et al.
# Submitted via: audiograbber 1.83.01
#
DISCID=33052005
DTITLE=Stella Getz - Ta-Di-Di-Boom
DYEAR=1996
DGENRE=Pop
TTITLE0=Ta-Di-Di-Boom (Single Mix)
TTITLE1=Ta-Di-Di-Boom (Single Special Mix)
TTITLE2=Ta-Di-Di-Boom (Special Club Mix)
TTITLE3=Ta-Di-Di-Boom (Extended Mix)
TTITLE4=Ta-Di-Di-Boom (Video Mix)
EXTD=P 1996 Mega Scandinavia A/S MRCXCD 2778
EXTT0=
EXTT1=
EXTT2=
EXTT3=
EXTT4=
PLAYORDER=
